<?xml version="1.0" encoding="UTF-8" standalone="no"?>
<!-- Created with Inkscape (http://www.inkscape.org/) -->

<svg
   width="3000"
   height="3000"
   viewBox="0 0 793.75 793.75"
   version="1.1"
   id="svg5"
   xml:space="preserve"
   inkscape:version="1.2.2 (732a01da63, 2022-12-09)"
   sodipodi:docname="GoodLuck_005.svg"
   xmlns:inkscape="http://www.inkscape.org/namespaces/inkscape"
   xmlns:sodipodi="http://sodipodi.sourceforge.net/DTD/sodipodi-0.dtd"
   xmlns="http://www.w3.org/2000/svg"
   xmlns:svg="http://www.w3.org/2000/svg"><sodipodi:namedview
     id="namedview7"
     pagecolor="#505050"
     bordercolor="#eeeeee"
     borderopacity="1"
     inkscape:showpageshadow="0"
     inkscape:pageopacity="0"
     inkscape:pagecheckerboard="0"
     inkscape:deskcolor="#505050"
     inkscape:document-units="mm"
     showgrid="false"
     inkscape:zoom="0.1"
     inkscape:cx="370"
     inkscape:cy="1360"
     inkscape:window-width="1366"
     inkscape:window-height="705"
     inkscape:window-x="-8"
     inkscape:window-y="-8"
     inkscape:window-maximized="1"
     inkscape:current-layer="layer1" /><defs
     id="defs2" /><g
     inkscape:label="Layer 1"
     inkscape:groupmode="layer"
     id="layer1"><path
       style="fill:#000000;stroke-width:1.69039"
       d="m 140.87656,580.59232 c -12.0265,-3.06507 -16.74399,-13.59632 -11.09264,-24.76313 3.72728,-7.36498 8.69847,-10.31013 19.8435,-11.75607 l 8.2591,-1.07154 -0.90166,-18.87891 c -1.14259,-23.92586 -4.80016,-41.26543 -13.43123,-63.67432 -17.4545,-45.31746 -20.55011,-54.45044 -24.35028,-71.84169 -7.34633,-33.61979 -4.97631,-30.13836 -39.077435,-57.40402 L 66.214434,320.07965 52.2344,328.75819 c -7.688961,4.7732 -17.539475,11.63423 -21.889987,15.24663 -4.350576,3.6124 -8.462016,6.56803 -9.136555,6.56803 -3.065196,0 6.161187,-7.47902 24.036653,-19.48431 12.268131,-8.23937 18.862101,-13.65823 17.850868,-14.66946 -1.801858,-1.80192 -17.911052,5.76654 -31.777491,14.92974 -4.744835,3.13547 -9.223316,5.70087 -9.952224,5.70087 -3.029738,0 12.63562,-10.83651 24.856793,-17.19467 9.474336,-4.92909 13.161873,-7.75687 13.161873,-10.09304 0,-4.59718 -3.919965,-5.54382 -14.035553,-3.38955 -4.831595,1.02893 -13.56827,2.90464 -19.41474,4.16823 -14.343689,3.10002 -11.022107,0.56606 3.868407,-2.95083 6.508039,-1.53723 15.445964,-3.6685 19.862154,-4.73621 l 8.029361,-1.94133 v -10.94474 c 0,-6.01961 1.23248,-17.47616 2.738916,-25.45894 L 63.17179,249.99446 56.396759,233.09049 C 44.035925,202.24961 39.327124,181.53352 44.67788,181.53352 c 1.208586,0 15.471072,6.52803 31.6945,14.50673 l 29.49704,14.50667 18.23657,-0.56094 c 12.57927,-0.38717 18.65472,-1.239 19.58462,-2.74671 0.74143,-1.2022 3.08794,-11.85164 5.21454,-23.66553 3.82995,-21.27671 7.01513,-30.77686 10.31882,-30.77686 3.90898,0 16.48116,15.69462 23.82263,29.73912 4.32866,8.28095 10.25327,22.8425 13.16577,32.35901 4.54326,14.84496 6.51558,18.68672 13.88541,27.04626 4.72446,5.359 11.55667,13.72556 15.18268,18.59249 10.36041,13.90612 10.64024,13.97588 55.88397,13.94113 32.48717,-0.0256 44.71493,-0.76405 69.81265,-4.21954 100.95884,-13.90005 128.70303,-16.65455 142.39154,-14.13688 12.34889,2.27131 32.28624,11.42326 43.76445,20.08934 14.51197,10.95668 24.32198,21.78284 41.46106,45.75593 8.9231,12.48101 21.07272,27.63711 26.99918,33.68029 26.78023,27.30738 60.02947,40.53352 87.49874,34.80608 12.74602,-2.65765 25.53261,-8.50329 33.78054,-15.44347 2.93492,-2.46956 9.97816,-10.87913 15.65162,-18.68794 6.36314,-8.75802 11.48549,-14.19783 13.36938,-14.19783 4.75142,0 13.02049,7.92752 15.21961,14.59087 3.31589,10.04729 1.35808,25.70377 -4.77103,38.15373 -9.33448,18.96106 -28.12976,32.96991 -52.91097,39.43661 -15.96231,4.16543 -56.89361,2.73643 -73.39694,-2.56245 -15.7631,-5.06115 -31.53324,-13.14814 -44.18298,-22.6571 -5.70547,-4.28886 -10.83964,-7.79789 -11.40934,-7.79789 -0.56989,0 -1.03583,5.48358 -1.03583,12.18578 0,10.38769 0.9354,14.31621 6.33899,26.6237 6.19192,14.10289 6.33382,14.88885 6.11794,33.87739 -0.35587,31.3327 -9.7329,65.31762 -21.36693,77.44251 -19.3007,20.11502 -58.116,20.49599 -65.66351,0.64457 -1.9005,-4.99866 0.57372,-13.8304 4.99566,-17.83221 1.63997,-1.48414 9.02788,-3.71852 16.41765,-4.96538 l 13.43596,-2.2669 1.95072,-8.33961 c 1.07295,-4.58671 2.02374,-12.30659 2.11299,-17.15525 0.21211,-11.52778 -4.77837,-17.35592 -23.31119,-27.22343 l -13.71515,-7.30243 -0.0128,8.14762 c -0.0319,18.86581 -3.03536,29.51046 -15.2817,54.11911 -13.56828,27.26483 -18.67689,32.98959 -31.98648,35.84395 -12.86849,2.75981 -31.48973,2.33929 -38.23921,-0.86352 -7.49129,-3.55484 -10.54051,-12.42817 -7.46899,-21.73499 2.56009,-7.7549 9.36528,-11.0407 22.86698,-11.0407 h 9.43408 l 3.26102,-7.18418 c 2.11823,-4.66657 3.27405,-10.99565 3.29813,-18.06061 0.0575,-16.65385 -3.8401,-23.03698 -22.66445,-37.12397 -8.6202,-6.45086 -20.43319,-17.08471 -26.25104,-23.63083 -13.41129,-15.0901 -16.60612,-16.22247 -44.99852,-15.94928 -23.8324,0.22936 -43.67373,3.2276 -66.7732,10.09042 l -14.50545,4.30956 -2.09147,20.53151 c -4.29058,42.12014 -14.69891,92.65349 -21.5055,104.4116 -4.7794,8.25616 -15.73544,11.76366 -35.01755,11.21051 -14.17451,-0.40697 -15.15565,-0.68112 -19.1864,-5.36839 -3.58142,-4.16478 -4.08135,-6.02133 -3.18627,-11.83273 1.5456,-10.03464 5.91215,-15.06825 14.66409,-16.90435 4.08844,-0.85777 7.96119,-2.35475 8.60622,-3.32676 2.53741,-3.82368 3.28452,-23.17307 1.47973,-38.3261 -1.91424,-16.07258 -7.69107,-37.08129 -10.19641,-37.08129 -1.65779,0 -3.97683,9.02616 -10.20599,39.72418 -5.32047,26.21967 -13.38165,52.88663 -18.50286,61.2086 -4.75358,7.72455 -15.54531,12.72175 -28.82736,13.34875 -6.04312,0.28494 -13.4909,-0.11947 -16.55053,-0.89917 z"
       id="path509" /></g></svg>
